HIERARCHY
ROOT Hips
{
	OFFSET	0.00	0.00	0.00
	CHANNELS 6 Xposition Yposition Zposition Zrotation Xrotation Yrotation
	JOINT LeftUpLeg
	{
		OFFSET	 0.126116	-0.065224	 0.014019
		CHANNELS 3 Zrotation Xrotation Yrotation
		JOINT LeftLeg
		{
			OFFSET	 0.000000	 0.569914	 0.000000
			CHANNELS 3 Zrotation Xrotation Yrotation
			JOINT LeftFoot
			{
				OFFSET	 0.000000	 0.544423	 0.000000
				CHANNELS 3 Zrotation Xrotation Yrotation
				JOINT LeftToeBase
				{
					OFFSET	 0.000000	 0.207117	 0.000000
					CHANNELS 3 Zrotation Xrotation Yrotation
					End Site
					{
						OFFSET	 0.000000	 0.207117	 0.000000
					}
				}
			}
		}
	}
	JOINT RightUpLeg
	{
		OFFSET	-0.124023	-0.065224	 0.008373
		CHANNELS 3 Zrotation Xrotation Yrotation
		JOINT RightLeg
		{
			OFFSET	 0.000000	 0.570047	 0.000000
			CHANNELS 3 Zrotation Xrotation Yrotation
			JOINT RightFoot
			{
				OFFSET	 0.000000	 0.544354	 0.000000
				CHANNELS 3 Zrotation Xrotation Yrotation
				JOINT RightToeBase
				{
					OFFSET	 0.000000	 0.207540	 0.000000
					CHANNELS 3 Zrotation Xrotation Yrotation
					End Site
					{
						OFFSET	 0.000000	 0.207540	 0.000000
					}
				}
			}
		}
	}
	JOINT Spine
	{
		OFFSET	 0.000184	 0.117403	 0.007763
		CHANNELS 3 Zrotation Xrotation Yrotation
		JOINT Spine1
		{
			OFFSET	 0.000000	 0.137269	 0.000000
			CHANNELS 3 Zrotation Xrotation Yrotation
			JOINT Spine2
			{
				OFFSET	 0.000000	 0.156879	 0.000000
				CHANNELS 3 Zrotation Xrotation Yrotation
				JOINT LeftShoulder
				{
					OFFSET	 0.080501	 0.160143	 0.002496
					CHANNELS 3 Zrotation Xrotation Yrotation
					JOINT LeftArm
					{
						OFFSET	 0.000000	 0.164363	 0.000000
						CHANNELS 3 Zrotation Xrotation Yrotation
						JOINT LeftForeArm
						{
							OFFSET	 0.000000	 0.364576	 0.000000
							CHANNELS 3 Zrotation Xrotation Yrotation
							JOINT LeftHand
							{
								OFFSET	 0.000000	 0.360812	 0.000000
								CHANNELS 3 Zrotation Xrotation Yrotation
								JOINT LeftHandIndex1
								{
									OFFSET	 0.000000	 0.086006	 0.000000
									CHANNELS 3 Zrotation Xrotation Yrotation
									JOINT LeftHandIndex2
									{
										OFFSET	 0.000000	 0.047237	 0.000000
										CHANNELS 3 Zrotation Xrotation Yrotation
										JOINT LeftHandIndex3
										{
											OFFSET	-0.004284	 0.038165	 0.000551
											CHANNELS 3 Zrotation Xrotation Yrotation
											End Site
											{
												OFFSET	-0.004284	 0.038165	 0.000551
											}
										}
									}
								}
							}
						}
					}
				}
				JOINT Neck
				{
					OFFSET	 0.000000	 0.176489	 0.000000
					CHANNELS 3 Zrotation Xrotation Yrotation
					JOINT Head
					{
						OFFSET	 0.000000	 0.077941	 0.001747
						CHANNELS 3 Zrotation Xrotation Yrotation
						End Site
						{
							OFFSET	 0.000000	 0.077941	 0.001747
						}
					}
				}
				JOINT RightShoulder
				{
					OFFSET	-0.080363	 0.159706	-0.000306
					CHANNELS 3 Zrotation Xrotation Yrotation
					JOINT RightArm
					{
						OFFSET	 0.000000	 0.164196	 0.000000
						CHANNELS 3 Zrotation Xrotation Yrotation
						JOINT RightForeArm
						{
							OFFSET	 0.000000	 0.365611	 0.000000
							CHANNELS 3 Zrotation Xrotation Yrotation
							JOINT RightHand
							{
								OFFSET	 0.000000	 0.360648	 0.000000
								CHANNELS 3 Zrotation Xrotation Yrotation
								JOINT RightHandIndex1
								{
									OFFSET	 0.000000	 0.069977	 0.000000
									CHANNELS 3 Zrotation Xrotation Yrotation
									JOINT RightHandIndex2
									{
										OFFSET	 0.000000	 0.052305	 0.000000
										CHANNELS 3 Zrotation Xrotation Yrotation
										JOINT RightHandIndex3
										{
											OFFSET	 0.009002	 0.042196	 0.000782
											CHANNELS 3 Zrotation Xrotation Yrotation
											End Site
											{
												OFFSET	 0.009002	 0.042196	 0.000782
											}
										}
									}
								}
							}
						}
					}
				}
			}
		}
	}
}
MOTION
Frames:    8
Frame Time: 0.03333334
-0.011724	 1.176387	-1.837195	-0.588876	-0.696242	-168.697800	-175.724800	-12.929740	-10.048030	 5.393332	-35.341490	 4.091607	-20.628430	 64.693790	 19.043870	 7.559062	 68.954440	-6.249017	 173.050500	 36.724330	 19.154950	-2.308031	-28.172440	 10.363690	-8.008572	 60.851060	-1.667111	-1.785971	 34.520360	 2.946179	 2.108768	 5.847850	-14.498190	 1.356194	 0.635412	-3.552967	-0.683917	-0.800961	 1.265756	-120.967600	 8.926924	 94.745910	 30.088240	 27.305930	-9.603518	 4.912072	-0.253858	-0.073015	 22.143220	-10.474310	-6.749528	 5.235777	 20.938930	-1.999228	-5.864046	 24.473720	 2.708612	 5.490878	 8.109444	-0.105671	-0.103224	-5.140142	 0.056075	-1.751573	-0.982751	-1.137902	 119.451300	-2.357757	-89.758700	 14.097580	 46.356740	-8.707911	-4.676568	-0.183823	 0.051042	 3.283524	 5.911386	-31.810420	-1.646386	 9.396433	 0.948841	 13.105200	 29.223530	-6.760985	-8.442440	 8.066029	-0.207985
-0.000851	 1.210459	-2.107008	 0.858113	 1.207773	-172.867200	-170.254100	 8.545919	-19.316220	 17.800140	-66.559070	 17.599210	-19.727030	 68.165020	 19.365350	 2.606992	 42.693320	-3.062587	 179.191900	 25.887760	 16.180750	-3.160628	-36.250700	 3.306919	-23.681480	 71.734780	 18.547990	-1.544608	 31.631110	 2.825681	 2.704962	 6.843659	-10.165120	 1.312000	 0.463195	-2.516001	-0.833532	-0.614532	 2.330703	-120.362100	 7.814782	 94.146060	 23.376810	 38.122650	-7.308833	 4.903196	-0.253418	-0.072986	 9.981112	-5.473204	 0.032983	 5.006332	 23.351620	-2.078122	-5.876234	 26.630430	 2.954354	 5.610405	 10.976900	-0.064171	 0.040219	-4.940785	-0.149269	-1.759130	-0.981701	-1.816266	 119.883000	-1.056460	-90.383720	-2.018635	 49.429140	 0.943139	-4.721277	-0.185543	 0.050996	-3.854419	 1.796846	-21.426140	-2.234122	 15.532580	 1.242281	 13.861690	 35.085550	-8.420345	-8.496632	 12.657830	-0.497455
 0.001944	 1.232614	-2.347443	 0.697387	 1.027267	-176.306700	-166.285500	 29.510400	-31.341090	 21.140130	-69.820570	 17.736900	-13.660640	 70.710590	 18.607770	 1.472434	 30.741720	-2.793087	-178.691000	 11.871450	 14.527400	-2.742634	-32.470870	-0.722758	-47.774680	 76.777800	 44.139380	-1.645526	 32.861350	 2.874734	 1.642401	 6.928741	-6.015598	 1.185974	 1.037802	-1.264106	-1.039234	-1.019550	 3.215010	-120.133100	 6.400810	 93.442630	 8.482478	 48.724700	 1.753343	 5.014003	-0.259091	-0.072579	 5.712436	-3.668863	 7.271934	 4.947013	 25.898490	-2.119723	-5.902137	 29.002260	 3.230949	 5.717269	 13.557420	-0.031706	 0.123296	-4.841349	-0.382189	-2.131459	-1.418399	-2.350199	 119.805600	 0.231956	-90.994540	-19.127970	 49.795080	 8.763563	-4.690187	-0.184294	 0.051012	-12.887910	-1.501585	-13.664720	-2.667485	 18.808660	 1.455108	 14.404120	 38.353010	-9.446568	-8.518224	 15.429220	-0.672741
-0.005239	 1.227515	-2.615200	-0.968094	-0.681929	 179.744600	-179.416500	 28.425800	-32.232590	 1.244884	-9.308523	-4.783648	-14.805560	 60.385120	 25.812200	 1.275778	 28.208830	-2.706172	 179.856300	-3.376610	 12.216790	-2.056729	-25.514700	-5.605700	-71.601340	 76.016520	 69.979740	-2.406689	 41.072420	 3.278034	-1.063991	 5.984964	-1.280244	 0.868130	 2.354254	 0.060865	-1.294595	-2.018389	 4.232744	-120.022400	 4.241997	 92.391950	-20.248300	 52.513250	 21.028960	 4.852326	-0.250787	-0.073174	 4.924879	 0.917854	 16.575130	 4.910741	 28.476430	-2.051832	-5.962131	 32.317330	 3.631339	 5.862572	 17.073320	 0.005079	 0.143122	-4.869442	-0.686985	-2.712963	-2.282067	-2.963083	 119.396200	 1.704116	-91.672490	-34.356860	 44.039830	 11.635380	-4.719747	-0.185365	 0.050931	-27.355810	-1.031637	-6.824993	-2.983523	 20.718630	 1.586178	 14.835150	 40.587180	-10.201450	-8.529614	 17.724180	-0.818968
-0.036908	 1.178279	-3.116303	-3.525299	-0.108311	 176.363100	 179.044000	 34.480900	-26.713700	 4.259101	-29.262360	-0.183689	-4.073508	 64.058810	 17.771700	 1.397324	 29.788620	-2.758943	 171.808900	-13.503490	 7.950777	-3.720678	-40.794350	 1.792428	 9.663432	 46.265940	-0.634209	-12.230070	 68.766390	 18.103980	-4.218028	 6.603072	 1.492357	 0.590627	 2.353246	 0.602916	-1.839592	-2.843553	 4.950622	-120.764400	 3.894407	 92.256160	-19.987810	 49.939370	 18.489560	 4.564008	-0.235921	-0.074445	-5.368183	 12.120150	 22.290120	 4.359505	 20.851230	-1.524004	-5.881549	 27.232830	 3.023928	 5.685746	 12.794910	-0.040840	-0.091158	-5.251206	-0.707464	-2.010246	-1.902009	-3.472899	 119.355100	 1.192648	-91.428670	-27.595280	 38.270270	 8.571049	-4.924373	-0.193505	 0.050339	-24.584530	 5.790937	-9.175807	-2.822390	 25.321340	 1.521165	 15.970240	 45.415830	-12.019710	-8.532310	 23.011560	-1.162602
-0.046869	 1.212636	-3.377835	-3.056335	 0.705607	-177.624800	 175.421900	 23.035150	-19.577350	 5.219676	-34.464120	 1.135791	-8.618021	 73.032010	 19.883570	 1.377226	 29.530570	-2.750003	 170.719700	 11.927550	 12.808150	-10.886060	-68.289960	-1.864254	 7.200226	 64.698420	-2.167774	-1.619821	 32.494610	 3.266925	-2.368102	 7.517378	-4.924736	 1.046169	 1.613853	-0.800440	-1.760870	-2.153937	 4.579435	-121.956900	 5.803035	 93.269840	-3.427763	 53.374970	 9.035649	 4.905810	-0.253531	-0.073036	 6.108940	-3.236883	 9.759152	 4.538905	 20.277620	-1.712388	-5.861812	 22.540760	 2.492159	 5.374707	 5.354042	-0.151005	-0.169281	-4.990267	-0.363001	-2.667111	-1.506356	-2.468617	 118.978600	 0.492078	-91.082480	-12.923540	 49.733460	 1.802510	-4.662670	-0.183287	 0.051153	-12.195320	 3.540679	-18.735730	-2.705538	 27.210740	 1.469436	 16.310480	 46.640050	-12.529980	-8.524738	 24.917400	-1.289802
-0.043724	 1.224658	-3.715724	-2.584467	-2.001060	-172.665500	 175.460200	 5.265813	-14.266590	 4.194258	-28.889670	 6.966004	 21.466540	 85.057630	-15.484940	 1.562700	 31.863880	-2.835614	 164.697800	 37.483540	 26.463780	-3.565155	-39.590050	 8.913169	 4.701456	 69.826870	-5.083461	-1.673925	 33.147120	 3.137498	-0.713015	 5.955201	-10.697630	 1.346669	 2.912531	-2.636830	-1.616354	-3.376418	 3.494497	-121.420900	 8.641721	 94.648960	 27.167110	 33.006530	-6.982530	 4.775175	-0.246833	-0.073557	 18.961960	-12.779830	-5.117669	 4.686598	 19.643300	-1.723397	-5.862508	 22.042400	 2.436851	 5.348704	 4.742812	-0.161775	-0.176106	-4.860873	 0.111485	-1.838417	-2.551825	-2.216560	 118.201900	-0.785452	-90.463940	 8.264244	 49.919040	-10.223020	-4.738818	-0.186248	 0.050897	-5.455771	 8.197993	-25.833580	-1.912463	 22.308220	 1.070336	 15.017960	 41.457760	-10.509050	-8.535117	 20.273220	-0.983204
-0.014168	 1.172766	-4.150142	-0.562833	-1.181554	-168.554600	-176.302600	-16.270720	-9.259954	 4.215685	-29.013140	 2.954633	-19.931630	 65.198710	 18.378950	 7.642845	 69.108740	-6.377528	 172.434000	 37.434770	 19.655070	-1.998083	-24.876500	 10.985240	-6.228490	 59.458670	-3.393159	-1.811491	 34.815240	 2.959546	 1.863281	 4.975493	-16.527510	 2.117179	 2.361065	-4.279549	-1.456709	-3.225251	 3.008836	-121.022600	 9.072455	 94.823430	 29.685380	 26.374880	-9.259180	 4.873744	-0.251860	-0.073125	 22.725200	-14.959950	-10.012480	 5.052162	 20.728490	-1.919461	-5.863381	 24.250230	 2.683385	 5.470099	 7.614518	-0.113416	-0.106894	-5.183974	 0.282260	-1.655243	-1.507993	-0.817033	 118.939200	-2.407867	-89.729010	 17.429340	 45.778030	-11.207380	-4.661339	-0.183211	 0.051070	 0.198584	 5.587806	-36.281910	-1.579990	 9.157462	 0.920844	 13.078700	 28.977450	-6.695494	-8.441999	 8.036549	-0.206141
